<?xml version="1.0" standalone="no"?>
<!DOCTYPE svg PUBLIC "-//W3C//DTD SVG 20010904//EN"
 "http://www.w3.org/TR/2001/REC-SVG-20010904/DTD/svg10.dtd">
<svg version="1.0" xmlns="http://www.w3.org/2000/svg"
 width="512.000000pt" height="512.000000pt" viewBox="0 0 512.000000 512.000000"
 preserveAspectRatio="xMidYMid meet">

<g transform="translate(0.000000,512.000000) scale(0.100000,-0.100000)"
fill="#000000" stroke="none">
<path d="M0 2560 l0 -2560 2560 0 2560 0 0 2560 0 2560 -2560 0 -2560 0 0
-2560z m4290 0 l0 -1730 -1730 0 -1730 0 0 1730 0 1730 1730 0 1730 0 0 -1730z"/>
<path d="M1017 4103 c-4 -3 -7 -701 -7 -1550 l0 -1543 778 -2 c427 -2 1126 -3
1552 -3 l775 0 0 820 c-1 451 -2 1150 -3 1553 l-2 732 -1543 0 c-849 0 -1547
-3 -1550 -7z m444 -589 c39 -20 59 -68 59 -141 l0 -58 -63 -32 c-35 -18 -66
-33 -70 -33 -4 0 -7 34 -7 75 l0 75 -55 0 -55 0 0 -310 0 -310 55 0 55 0 0
105 c0 108 -3 115 -41 95 -18 -10 -19 -7 -19 69 l0 79 89 46 c49 25 94 46 100
46 8 0 11 -87 11 -290 l0 -290 -152 0 c-166 1 -186 6 -219 56 -18 27 -19 50
-19 398 l0 368 34 34 34 34 116 0 c87 0 125 -4 147 -16z m514 -17 c24 -24 35
-46 40 -78 3 -24 5 -208 3 -409 l-3 -365 -72 -3 -73 -3 0 191 0 190 -52 -30
-53 -30 -3 -160 -2 -161 -68 3 -67 3 -3 385 c-3 515 -10 499 202 500 l118 0
33 -33z m434 7 l31 -26 31 26 c28 24 38 26 120 26 68 0 96 -4 116 -17 51 -34
53 -50 53 -478 l0 -395 -70 0 -70 0 0 380 0 380 -55 0 -55 0 0 -380 0 -380
-70 0 -70 0 0 380 0 380 -55 0 -55 0 0 -380 0 -380 -70 0 -70 0 0 411 0 411
34 34 c34 34 34 34 129 34 88 0 98 -2 126 -26z m591 -419 l0 -445 -70 0 -70 0
0 445 0 445 70 0 70 0 0 -445z m251 418 c0 -16 3 -22 6 -15 15 38 128 56 181
28 57 -29 57 -33 57 -470 l0 -401 -67 -3 -68 -3 0 381 0 380 -55 0 -55 0 0
-380 0 -381 -72 3 -73 3 -3 443 -2 442 75 0 c75 0 75 0 76 -27z m687 11 c36
-25 52 -68 52 -136 l0 -64 -70 -38 -70 -37 0 80 0 81 -55 0 -55 0 0 -310 0
-310 55 0 55 0 0 110 0 111 -30 -16 -30 -16 0 78 0 78 100 53 100 53 0 -296 0
-296 -160 3 -160 3 -32 33 -33 32 -3 362 c-3 386 -1 401 46 438 21 17 41 20
146 20 94 0 127 -4 144 -16z m-1900 -1109 c3 -55 -6 -83 -113 -368 -63 -169
-115 -312 -115 -317 0 -6 45 -10 115 -10 l115 0 0 -65 0 -65 -185 0 -185 0 0
73 c0 69 7 92 106 358 59 156 109 294 111 307 5 22 4 22 -106 22 l-111 0 0 65
0 65 183 -2 182 -3 3 -60z m444 27 l33 -32 3 -360 c3 -398 1 -415 -59 -445
-40 -21 -229 -21 -269 0 -59 30 -60 39 -60 430 0 388 1 398 58 430 21 12 54
14 144 13 l118 -3 32 -33z m278 13 c0 -31 7 -31 37 -4 30 29 109 37 151 15 62
-32 62 -34 62 -476 l0 -400 -70 0 -70 0 -2 378 -3 377 -50 0 -50 0 -3 -377 -2
-378 -70 0 -70 0 0 445 0 445 70 0 c68 0 70 -1 70 -25z m690 -40 l0 -65 -95 0
-95 0 0 -120 c0 -66 2 -120 5 -120 3 0 42 19 88 42 45 24 86 44 90 46 4 2 7
-31 5 -75 l-3 -78 -92 -48 -93 -48 0 -114 0 -115 95 0 95 0 0 -65 0 -65 -165
0 -165 0 0 400 c0 338 2 406 15 430 26 50 56 59 193 60 l122 0 0 -65z"/>
<path d="M1760 3265 c0 -81 4 -135 10 -135 5 0 30 10 55 22 l45 22 0 113 0
113 -55 0 -55 0 0 -135z"/>
<path d="M2277 2334 c-4 -4 -7 -146 -7 -316 l0 -308 55 0 55 0 -2 313 -3 312
-45 3 c-25 2 -49 0 -53 -4z"/>
</g>
</svg>
